<svg width="1728" height="840" viewBox="0 0 1728 840" fill="none" xmlns="http://www.w3.org/2000/svg">
<rect width="1728" height="840" fill="white"/>
<path d="M475.655 108H517.586L528.621 127.91V163.306L546.276 183.216L552.897 163.306L563.931 136.759L581.586 163.306L572.759 176.579L563.931 207.55L572.759 236.309L594.828 271.705L641.172 331.435L674.276 344.709L702.966 320.374V296.04L722.828 289.403L744.897 311.525H784.621L822.138 320.374V344.709L848.621 360.194V384.529V417.712L828.759 433.198L883.931 453.108L936.897 433.198L981.034 400.014L1018.55 466.381L1042.83 433.198L1062.69 453.108L1075.93 481.867C1088.44 481.129 1115.66 478.327 1124.48 473.018C1133.31 467.709 1148.76 466.381 1155.38 466.381L1144.34 508.414L1137.72 530.536L1113.45 543.809L1093.59 557.083L1075.93 579.205L1086.97 612.388H1124.48C1131.1 612.388 1146.55 607.964 1155.38 590.266C1164.21 572.568 1159.06 607.964 1155.38 627.874L1162 645.572L1137.72 661.058L1113.45 676.543V694.241H1162L1144.34 723L1056.07 694.241L1075.93 676.543L1056.07 656.633L1018.55 661.058L994.276 656.633L1031.79 634.511L1014.14 612.388L963.379 627.874V612.388C972.207 601.327 990.745 579.205 994.276 579.205H744.897L722.828 590.266L702.966 570.356H674.276L632.345 634.511L552.897 627.874L537.448 656.633H458L486.69 634.511L502.138 590.266L517.586 570.356L486.69 557.083L495.517 543.809V508.414L486.69 495.14V473.018L517.586 453.108L495.517 433.198L517.586 417.712L502.138 400.014V377.892L495.517 311.525H517.586V289.403L486.69 265.068L495.517 183.216L469.034 150.032L475.655 108Z" fill="white" stroke="#164B2E" stroke-opacity="0.07" stroke-width="4" stroke-linecap="round"/>
</svg>
